Coordinates
version=1
nRows=14
nColumns=33
inDegrees=yes

Units are S.I. units (second, meters, Newtons, ...)
Angles are in degrees.

endheader
time	ground_thorax_rot_x	ground_thorax_rot_y	ground_thorax_rot_z	ground_thorax_tx	ground_thorax_ty	ground_thorax_tz	clav_prot_r	clav_elev_r	scapula_abduction_r	scapula_elevation_r	scapula_upward_rot_r	scapula_winging_r	shoulder_elv_r	plane_of_elev_r	axial_rot_r	elbow_flexion_r	pro_sup_r	wrist_flex_r	wrist_dev_r	clav_prot_l	clav_elev_l	scapula_abduction_l	scapula_elevation_l	scapula_upward_rot_l	scapula_winging_l	shoulder_elv_l	plane_of_elev_l	axial_rot_l	elbow_flexion_l	pro_sup_l	wrist_flex_l	wrist_dev_l	
7.0400	37.105133	8.155182	12.675152	-220.023245	821.928634	-1.491807	15.533839	37.616512	38.775001	45.000000	-45.000000	2074.911523	-826.006358	146.508740	180.000000	1090.428072	55.835141	24.974247	9.307602	10.053155	-45.000000	-39.319321	45.000000	-37.592924	-621.805067	-645.495687	24.330026	-15.020244	1086.378239	33.606994	7.669464	-24.320821	
7.0500	37.105819	8.272463	12.773128	-220.231096	821.411348	-1.444170	15.502068	37.613551	38.657223	45.000000	-45.000000	2074.975735	-825.994960	146.519407	180.000000	1090.544438	55.994951	24.913339	9.264219	10.102134	-45.000000	-39.171434	45.000000	-38.077428	-621.856359	-645.511559	24.349814	-15.177604	1086.421617	33.563645	7.435114	-24.210626	
7.0600	37.115691	8.373164	12.835334	-220.362774	820.902982	-1.399545	15.442440	37.646967	38.546480	45.000000	-45.000000	2075.056146	-825.962388	146.526742	180.000000	1090.625414	56.161567	24.823796	9.235401	10.143533	-45.000000	-39.064780	45.000000	-38.559820	-621.904419	-645.542515	24.392024	-15.338561	1086.474762	33.516697	7.158397	-24.095194	
7.0700	37.118175	8.453699	12.868344	-220.322370	820.411581	-1.359465	15.402120	37.649405	38.456292	45.000000	-45.000000	2075.150324	-825.930866	146.533000	180.000000	1090.738953	56.303845	24.751471	9.170087	10.194072	-45.000000	-39.006898	45.000000	-38.842223	-621.953796	-645.574406	24.408081	-15.445017	1086.535013	33.486454	6.983864	-24.027897	
7.0800	37.120084	8.520953	12.876804	-220.111693	819.940277	-1.327290	15.356949	37.633408	38.381774	45.000000	-45.000000	2075.253848	-825.892366	146.536748	180.000000	1090.867237	56.432538	24.677603	9.084891	10.253294	-45.000000	-38.988540	45.000000	-38.994510	-622.004398	-645.608211	24.411654	-15.531610	1086.602215	33.473291	6.853559	-23.987450	
7.0900	37.122411	8.571397	12.861935	-219.723324	819.493495	-1.307227	15.302097	37.614535	38.330085	45.000000	-45.000000	2075.361824	-825.847928	146.536681	180.000000	1091.016172	56.548331	24.600874	8.981984	10.317836	-45.000000	-39.010501	45.000000	-39.030612	-622.049582	-645.645302	24.407655	-15.614400	1086.680842	33.484184	6.754692	-23.970975	
7.1000	37.127827	8.614545	12.838911	-219.179691	819.075511	-1.304275	15.245487	37.583653	38.305027	45.000000	-45.000000	2075.462156	-825.802790	146.535154	180.000000	1091.177968	56.654965	24.519771	8.867618	10.384127	-45.000000	-39.048550	45.000000	-38.987912	-622.095160	-645.677559	24.392049	-15.716620	1086.763880	33.527070	6.668405	-23.967222	
7.1100	37.135683	8.651915	12.811598	-218.516367	818.691744	-1.323693	15.185557	37.566666	38.299736	45.000000	-45.000000	2075.553777	-825.752113	146.526782	180.000000	1091.345851	56.755020	24.431406	8.751072	10.443152	-45.000000	-39.102974	45.000000	-38.911089	-622.133940	-645.705173	24.373205	-15.855417	1086.852496	33.605742	6.571973	-23.967203	
7.1200	37.147295	8.687867	12.784132	-217.768434	818.350483	-1.370049	15.139349	37.548268	38.318916	45.000000	-45.000000	2075.629377	-825.700386	146.514229	180.000000	1091.510169	56.846502	24.341527	8.633837	10.492847	-45.000000	-39.157711	45.000000	-38.802638	-622.171159	-645.721633	24.343898	-16.027066	1086.944154	33.722790	6.475863	-23.971121	
7.1300	37.162948	8.710399	12.746838	-216.966060	818.062505	-1.446723	15.113867	37.547628	38.364043	45.000000	-45.000000	2075.688901	-825.646297	146.489410	180.000000	1091.667332	56.927003	24.250654	8.521190	10.524542	-45.000000	-39.217169	45.000000	-38.670916	-622.201911	-645.731186	24.309631	-16.223188	1087.036927	33.873163	6.380397	-23.978628	
7.1400	37.183654	8.725456	12.696148	-216.131697	817.840151	-1.555317	15.108274	37.549871	38.428139	45.000000	-44.999999	2075.733610	-825.583308	146.457563	180.000000	1091.810345	56.993304	24.158500	8.414731	10.542215	-45.000000	-39.277575	45.000000	-38.513781	-622.230243	-645.729871	24.272461	-16.430984	1087.126848	34.047401	6.294360	-23.990355	
7.1500	37.210866	8.721430	12.622778	-215.276964	817.694719	-1.695605	15.122042	37.562376	38.512961	45.000000	-44.999999	2075.754517	-825.518262	146.410546	180.000000	1091.958645	57.039504	24.068109	8.314478	10.544902	-45.000000	-39.335572	45.000000	-38.332540	-622.257454	-645.724028	24.238057	-16.644218	1087.206961	34.234839	6.222760	-24.006762	
7.1600	37.241425	8.709257	12.530026	-214.403106	817.634239	-1.865634	15.131821	37.570414	38.610122	45.000000	-44.999998	2075.762820	-825.445036	146.361418	180.000000	1092.114249	57.060800	23.976720	8.219463	10.547986	-45.000000	-39.398769	45.000000	-38.126091	-622.277620	-645.710665	24.211065	-16.856102	1087.283856	34.421398	6.169680	-24.030254	
7.1700	37.278878	8.677046	12.416513	-213.502025	817.661064	-2.062288	15.151383	37.579872	38.732649	45.000000	-44.999997	2075.744862	-825.377002	146.299195	180.000000	1092.290654	57.050110	23.887732	8.130198	10.545579	-45.000000	-39.456901	45.000000	-37.896931	-622.299073	-645.695930	24.187723	-17.068341	1087.352516	34.597439	6.136342	-24.060483	
